<mxfile host="app.diagrams.net" modified="2023-04-13T12:06:59.180Z" agent="Mozilla/5.0 (Windows NT 10.0; Win64; x64) AppleWebKit/537.36 (KHTML, like Gecko) Chrome/112.0.0.0 Safari/537.36" etag="34c3kijmA3xSoi-VvXjJ" version="21.1.4" type="google">
  <diagram name="페이지-1" id="bHZkFXGAVBKAJtpjv6o6">
    <mxGraphModel grid="1" page="1" gridSize="10" guides="1" tooltips="1" connect="1" arrows="1" fold="1" pageScale="1" pageWidth="827" pageHeight="1169" math="0" shadow="0">
      <root>
        <mxCell id="0" />
        <mxCell id="1" parent="0" />
        <mxCell id="8hKqvmyevHIKbB5jPOCA-1" value="Actor" style="shape=umlActor;verticalLabelPosition=bottom;verticalAlign=top;html=1;outlineConnect=0;" vertex="1" parent="1">
          <mxGeometry x="30" y="480" width="30" height="60" as="geometry" />
        </mxCell>
        <mxCell id="8hKqvmyevHIKbB5jPOCA-2" value="" style="rounded=0;whiteSpace=wrap;html=1;" vertex="1" parent="1">
          <mxGeometry x="149" y="140" width="650" height="830" as="geometry" />
        </mxCell>
        <mxCell id="8hKqvmyevHIKbB5jPOCA-3" value="게시판 서비스" style="text;html=1;strokeColor=none;fillColor=none;align=center;verticalAlign=middle;whiteSpace=wrap;rounded=0;" vertex="1" parent="1">
          <mxGeometry x="149" y="140" width="81" height="30" as="geometry" />
        </mxCell>
        <mxCell id="8hKqvmyevHIKbB5jPOCA-4" value="회원 가입" style="rounded=1;whiteSpace=wrap;html=1;fillColor=#fff2cc;strokeColor=#d6b656;" vertex="1" parent="1">
          <mxGeometry x="230" y="440" width="120" height="60" as="geometry" />
        </mxCell>
        <mxCell id="8hKqvmyevHIKbB5jPOCA-22" style="rounded=0;orthogonalLoop=1;jettySize=auto;html=1;exitX=1;exitY=0.5;exitDx=0;exitDy=0;dashed=1;entryX=0.5;entryY=1;entryDx=0;entryDy=0;" edge="1" parent="1" source="8hKqvmyevHIKbB5jPOCA-5" target="8hKqvmyevHIKbB5jPOCA-7">
          <mxGeometry relative="1" as="geometry" />
        </mxCell>
        <mxCell id="8hKqvmyevHIKbB5jPOCA-30" style="rounded=0;orthogonalLoop=1;jettySize=auto;html=1;exitX=1;exitY=0.5;exitDx=0;exitDy=0;entryX=1;entryY=0.5;entryDx=0;entryDy=0;" edge="1" parent="1" target="8hKqvmyevHIKbB5jPOCA-5">
          <mxGeometry relative="1" as="geometry">
            <Array as="points">
              <mxPoint x="600" y="600" />
              <mxPoint x="470" y="620" />
            </Array>
            <mxPoint x="890" y="510" as="sourcePoint" />
          </mxGeometry>
        </mxCell>
        <mxCell id="8hKqvmyevHIKbB5jPOCA-34" style="rounded=0;orthogonalLoop=1;jettySize=auto;html=1;exitX=0;exitY=0.5;exitDx=0;exitDy=0;entryX=1;entryY=0.5;entryDx=0;entryDy=0;dashed=1;" edge="1" parent="1" source="8hKqvmyevHIKbB5jPOCA-24" target="8hKqvmyevHIKbB5jPOCA-5">
          <mxGeometry relative="1" as="geometry" />
        </mxCell>
        <mxCell id="8hKqvmyevHIKbB5jPOCA-5" value="게시판 보기" style="rounded=1;whiteSpace=wrap;html=1;fillColor=#fff2cc;strokeColor=#d6b656;" vertex="1" parent="1">
          <mxGeometry x="230" y="560" width="120" height="60" as="geometry" />
        </mxCell>
        <mxCell id="8hKqvmyevHIKbB5jPOCA-23" style="rounded=0;orthogonalLoop=1;jettySize=auto;html=1;exitX=1;exitY=0.5;exitDx=0;exitDy=0;dashed=1;" edge="1" parent="1" source="8hKqvmyevHIKbB5jPOCA-6">
          <mxGeometry relative="1" as="geometry">
            <mxPoint x="410" y="280" as="targetPoint" />
          </mxGeometry>
        </mxCell>
        <mxCell id="8hKqvmyevHIKbB5jPOCA-31" style="rounded=0;orthogonalLoop=1;jettySize=auto;html=1;exitX=0;exitY=0.5;exitDx=0;exitDy=0;entryX=1;entryY=0.5;entryDx=0;entryDy=0;" edge="1" parent="1" source="8hKqvmyevHIKbB5jPOCA-28" target="8hKqvmyevHIKbB5jPOCA-6">
          <mxGeometry relative="1" as="geometry">
            <Array as="points">
              <mxPoint x="570" y="620" />
              <mxPoint x="450" y="640" />
            </Array>
          </mxGeometry>
        </mxCell>
        <mxCell id="8hKqvmyevHIKbB5jPOCA-39" style="rounded=0;orthogonalLoop=1;jettySize=auto;html=1;exitX=1;exitY=0.5;exitDx=0;exitDy=0;entryX=0;entryY=0.5;entryDx=0;entryDy=0;dashed=1;endArrow=none;endFill=0;" edge="1" parent="1" source="8hKqvmyevHIKbB5jPOCA-6" target="8hKqvmyevHIKbB5jPOCA-26">
          <mxGeometry relative="1" as="geometry" />
        </mxCell>
        <mxCell id="8hKqvmyevHIKbB5jPOCA-6" value="게시글 보기" style="rounded=1;whiteSpace=wrap;html=1;fillColor=#fff2cc;strokeColor=#d6b656;" vertex="1" parent="1">
          <mxGeometry x="230" y="684.5" width="120" height="60" as="geometry" />
        </mxCell>
        <mxCell id="8hKqvmyevHIKbB5jPOCA-14" style="rounded=0;orthogonalLoop=1;jettySize=auto;html=1;exitX=1;exitY=0.5;exitDx=0;exitDy=0;entryX=0;entryY=0.5;entryDx=0;entryDy=0;dashed=1;" edge="1" parent="1" source="8hKqvmyevHIKbB5jPOCA-7" target="8hKqvmyevHIKbB5jPOCA-8">
          <mxGeometry relative="1" as="geometry" />
        </mxCell>
        <mxCell id="8hKqvmyevHIKbB5jPOCA-15" style="rounded=0;orthogonalLoop=1;jettySize=auto;html=1;exitX=1;exitY=0.5;exitDx=0;exitDy=0;entryX=0;entryY=0.5;entryDx=0;entryDy=0;dashed=1;" edge="1" parent="1" source="8hKqvmyevHIKbB5jPOCA-7" target="8hKqvmyevHIKbB5jPOCA-9">
          <mxGeometry relative="1" as="geometry" />
        </mxCell>
        <mxCell id="8hKqvmyevHIKbB5jPOCA-7" value="회원 로그인" style="rounded=1;whiteSpace=wrap;html=1;fillColor=#fff2cc;strokeColor=#d6b656;" vertex="1" parent="1">
          <mxGeometry x="350" y="220" width="120" height="60" as="geometry" />
        </mxCell>
        <mxCell id="8hKqvmyevHIKbB5jPOCA-29" style="rounded=0;orthogonalLoop=1;jettySize=auto;html=1;exitX=1;exitY=0.5;exitDx=0;exitDy=0;entryX=0;entryY=0.5;entryDx=0;entryDy=0;endArrow=none;endFill=0;" edge="1" parent="1" source="8hKqvmyevHIKbB5jPOCA-8" target="8hKqvmyevHIKbB5jPOCA-28">
          <mxGeometry relative="1" as="geometry" />
        </mxCell>
        <mxCell id="8hKqvmyevHIKbB5jPOCA-8" value="인증" style="rounded=1;whiteSpace=wrap;html=1;fillColor=#fff2cc;strokeColor=#d6b656;" vertex="1" parent="1">
          <mxGeometry x="610" y="220" width="120" height="60" as="geometry" />
        </mxCell>
        <mxCell id="8hKqvmyevHIKbB5jPOCA-9" value="로그인 실패" style="rounded=1;whiteSpace=wrap;html=1;fillColor=#fff2cc;strokeColor=#d6b656;" vertex="1" parent="1">
          <mxGeometry x="610" y="330" width="120" height="60" as="geometry" />
        </mxCell>
        <mxCell id="8hKqvmyevHIKbB5jPOCA-10" style="rounded=0;orthogonalLoop=1;jettySize=auto;html=1;exitX=1;exitY=0.3333333333333333;exitDx=0;exitDy=0;exitPerimeter=0;entryX=0;entryY=0.5;entryDx=0;entryDy=0;" edge="1" parent="1" source="8hKqvmyevHIKbB5jPOCA-1" target="8hKqvmyevHIKbB5jPOCA-4">
          <mxGeometry relative="1" as="geometry">
            <mxPoint x="120" y="500" as="sourcePoint" />
          </mxGeometry>
        </mxCell>
        <mxCell id="8hKqvmyevHIKbB5jPOCA-12" style="rounded=0;orthogonalLoop=1;jettySize=auto;html=1;exitX=1;exitY=0.3333333333333333;exitDx=0;exitDy=0;exitPerimeter=0;entryX=0;entryY=0.5;entryDx=0;entryDy=0;" edge="1" parent="1" source="8hKqvmyevHIKbB5jPOCA-1" target="8hKqvmyevHIKbB5jPOCA-6">
          <mxGeometry relative="1" as="geometry" />
        </mxCell>
        <mxCell id="8hKqvmyevHIKbB5jPOCA-11" style="rounded=0;orthogonalLoop=1;jettySize=auto;html=1;exitX=1;exitY=0.3333333333333333;exitDx=0;exitDy=0;exitPerimeter=0;entryX=0;entryY=0.5;entryDx=0;entryDy=0;" edge="1" parent="1" source="8hKqvmyevHIKbB5jPOCA-1" target="8hKqvmyevHIKbB5jPOCA-5">
          <mxGeometry relative="1" as="geometry" />
        </mxCell>
        <mxCell id="8hKqvmyevHIKbB5jPOCA-13" style="rounded=0;orthogonalLoop=1;jettySize=auto;html=1;exitX=1;exitY=0.3333333333333333;exitDx=0;exitDy=0;exitPerimeter=0;entryX=0;entryY=0.5;entryDx=0;entryDy=0;" edge="1" parent="1" source="8hKqvmyevHIKbB5jPOCA-1" target="8hKqvmyevHIKbB5jPOCA-7">
          <mxGeometry relative="1" as="geometry" />
        </mxCell>
        <mxCell id="8hKqvmyevHIKbB5jPOCA-16" value="include" style="text;html=1;strokeColor=none;fillColor=none;align=center;verticalAlign=middle;whiteSpace=wrap;rounded=0;" vertex="1" parent="1">
          <mxGeometry x="510" y="220" width="60" height="30" as="geometry" />
        </mxCell>
        <mxCell id="8hKqvmyevHIKbB5jPOCA-20" value="extend" style="text;html=1;strokeColor=none;fillColor=none;align=center;verticalAlign=middle;whiteSpace=wrap;rounded=0;" vertex="1" parent="1">
          <mxGeometry x="530" y="280" width="60" height="30" as="geometry" />
        </mxCell>
        <mxCell id="8hKqvmyevHIKbB5jPOCA-24" value="게시판 정렬" style="rounded=1;whiteSpace=wrap;html=1;fillColor=#fff2cc;strokeColor=#d6b656;" vertex="1" parent="1">
          <mxGeometry x="470" y="440" width="120" height="60" as="geometry" />
        </mxCell>
        <mxCell id="8hKqvmyevHIKbB5jPOCA-35" style="rounded=0;orthogonalLoop=1;jettySize=auto;html=1;exitX=0;exitY=0.5;exitDx=0;exitDy=0;entryX=1;entryY=0.5;entryDx=0;entryDy=0;dashed=1;" edge="1" parent="1" source="8hKqvmyevHIKbB5jPOCA-25" target="8hKqvmyevHIKbB5jPOCA-5">
          <mxGeometry relative="1" as="geometry" />
        </mxCell>
        <mxCell id="8hKqvmyevHIKbB5jPOCA-25" value="게시판 검색" style="rounded=1;whiteSpace=wrap;html=1;fillColor=#fff2cc;strokeColor=#d6b656;" vertex="1" parent="1">
          <mxGeometry x="470" y="525" width="120" height="60" as="geometry" />
        </mxCell>
        <mxCell id="8hKqvmyevHIKbB5jPOCA-32" style="rounded=0;orthogonalLoop=1;jettySize=auto;html=1;exitX=0;exitY=0.5;exitDx=0;exitDy=0;entryX=1;entryY=0.5;entryDx=0;entryDy=0;endArrow=none;endFill=0;" edge="1" parent="1" source="8hKqvmyevHIKbB5jPOCA-28" target="8hKqvmyevHIKbB5jPOCA-26">
          <mxGeometry relative="1" as="geometry" />
        </mxCell>
        <mxCell id="8hKqvmyevHIKbB5jPOCA-26" value="게시글 쓰기, 수정, &lt;br&gt;삭제" style="rounded=1;whiteSpace=wrap;html=1;fillColor=#fff2cc;strokeColor=#d6b656;" vertex="1" parent="1">
          <mxGeometry x="470" y="640" width="120" height="60" as="geometry" />
        </mxCell>
        <mxCell id="8hKqvmyevHIKbB5jPOCA-33" style="rounded=0;orthogonalLoop=1;jettySize=auto;html=1;exitX=0;exitY=0.5;exitDx=0;exitDy=0;entryX=1;entryY=0.5;entryDx=0;entryDy=0;endArrow=none;endFill=0;" edge="1" parent="1" source="8hKqvmyevHIKbB5jPOCA-28" target="8hKqvmyevHIKbB5jPOCA-27">
          <mxGeometry relative="1" as="geometry" />
        </mxCell>
        <mxCell id="8hKqvmyevHIKbB5jPOCA-27" value="댓글 보기, 쓰기, 수정, 삭제" style="rounded=1;whiteSpace=wrap;html=1;fillColor=#fff2cc;strokeColor=#d6b656;" vertex="1" parent="1">
          <mxGeometry x="470" y="744.5" width="120" height="60" as="geometry" />
        </mxCell>
        <mxCell id="8hKqvmyevHIKbB5jPOCA-28" value="&lt;font style=&quot;font-size: 18px;&quot;&gt;DB(MySQL)&lt;/font&gt;" style="rounded=0;whiteSpace=wrap;html=1;" vertex="1" parent="1">
          <mxGeometry x="890" y="435" width="140" height="150" as="geometry" />
        </mxCell>
        <mxCell id="8hKqvmyevHIKbB5jPOCA-38" style="rounded=0;orthogonalLoop=1;jettySize=auto;html=1;exitX=1;exitY=0.5;exitDx=0;exitDy=0;entryX=0;entryY=0.5;entryDx=0;entryDy=0;dashed=1;endArrow=none;endFill=0;" edge="1" parent="1">
          <mxGeometry relative="1" as="geometry">
            <mxPoint x="350" y="715" as="sourcePoint" />
            <mxPoint x="470" y="775" as="targetPoint" />
          </mxGeometry>
        </mxCell>
      </root>
    </mxGraphModel>
  </diagram>
</mxfile>
